<?xml version="1.0" encoding="UTF-8"?>
<svg version="1.1" xmlns="http://www.w3.org/2000/svg" width="429" height="129">
<path d="M0 0 C3.1875 0.375 3.1875 0.375 5.25 2.625 C5.889375 3.5325 6.52875 4.44 7.1875 5.375 C8.83045195 6.73744796 10.49574337 8.07364875 12.1875 9.375 C13.2069119 10.35520375 14.20996356 11.35303008 15.1875 12.375 C15.6825 12.87 16.1775 13.365 16.6875 13.875 C18.1875 15.375 19.6875 16.875 21.1875 18.375 C21.72375 18.82875 22.26 19.2825 22.8125 19.75 C24.71562662 21.99914964 25.11734202 23.4283648 25.1875 26.375 C24.506875 27.096875 23.82625 27.81875 23.125 28.5625 C20.99954585 31.64783668 20.82640555 32.34948209 21.1875 35.9375 C22.59635386 41.88500333 26.59449345 45.3394796 31.01953125 49.26391602 C32.47222936 50.56690356 33.83684144 51.96651508 35.1875 53.375 C35.1875 57.375 35.1875 57.375 33.7878418 58.89892578 C33.259729 59.38603027 32.73161621 59.87313477 32.1875 60.375 C31.02403772 62.99632865 29.98037331 65.56305092 29 68.25 C28.72736328 68.95769531 28.45472656 69.66539063 28.17382812 70.39453125 C26.76878287 74.17653277 25.82573043 77.27494487 26.1875 81.375 C24.5065918 82.17895508 24.5065918 82.17895508 22.1875 82.375 C19.76489258 80.40893555 19.76489258 80.40893555 17.08203125 77.51171875 C16.08814253 76.46916084 15.09399332 75.4268512 14.09960938 74.38476562 C12.55128712 72.7313149 11.00923736 71.07251441 9.47338867 69.4074707 C1.41487929 60.6332662 1.41487929 60.6332662 -9.8125 57.375 C-12.375 55.75 -12.375 55.75 -13.8125 54.375 C-18.00917896 55.9984455 -20.71308728 59.10856793 -23.75 62.29296875 C-24.9032175 63.47632904 -26.05687661 64.65925908 -27.2109375 65.84179688 C-29.02000251 67.70680981 -30.82488794 69.57543447 -32.62207031 71.4519043 C-34.36203305 73.26416794 -36.11711208 75.06061163 -37.875 76.85546875 C-38.67828735 77.70687691 -38.67828735 77.70687691 -39.49780273 78.57548523 C-41.03515625 80.13354492 -41.03515625 80.13354492 -43.8125 82.375 C-46.18359375 82.2199707 -46.18359375 82.2199707 -47.8125 81.375 C-47.895 80.26125 -47.9775 79.1475 -48.0625 78 C-48.59971984 73.50178609 -50.15339443 69.69831048 -51.97265625 65.57421875 C-52.8125 63.375 -52.8125 63.375 -52.8125 60.375 C-53.8025 60.375 -54.7925 60.375 -55.8125 60.375 C-55.31907306 55.94776936 -53.94200554 54.02535853 -50.77734375 50.94921875 C-49.56401367 49.75522461 -49.56401367 49.75522461 -48.32617188 48.53710938 C-47.0509668 47.31217773 -47.0509668 47.31217773 -45.75 46.0625 C-44.89599609 45.22654297 -44.04199219 44.39058594 -43.16210938 43.52929688 C-41.05428688 41.46857656 -38.93770151 39.41776791 -36.8125 37.375 C-37.29976562 36.776875 -37.78703125 36.17875 -38.2890625 35.5625 C-40.32938972 32.63279937 -40.25056055 30.8794844 -39.8125 27.375 C-38.83977325 26.02164105 -37.8385734 24.68837396 -36.8125 23.375 C-36.45330679 21.37948218 -36.11753431 19.37951121 -35.8125 17.375 C-35.1525 16.715 -34.4925 16.055 -33.8125 15.375 C-32.8225 15.375 -31.8325 15.375 -30.8125 15.375 C-30.565 14.570625 -30.3175 13.76625 -30.0625 12.9375 C-29.65 12.091875 -29.2375 11.24625 -28.8125 10.375 C-27.47916667 10.04166667 -26.14583333 9.70833333 -24.8125 9.375 C-24.503125 8.570625 -24.19375 7.76625 -23.875 6.9375 C-22.8125 4.375 -22.8125 4.375 -20.5625 2.875 C-16.7907031 2.18921875 -15.05605154 3.47117627 -11.8125 5.375 C-10.8225 5.705 -9.8325 6.035 -8.8125 6.375 C-8.008125 5.570625 -7.20375 4.76625 -6.375 3.9375 C-2.8125 0.375 -2.8125 0.375 0 0 Z " fill="#23201F" transform="translate(55.8125,27.625)"/>
<path d="M0 0 C-0.50980331 3.77254453 -1.20700182 5.44987123 -4 8 C-4 8.66 -4 9.32 -4 10 C-1.53199953 8.84826645 0.04783565 7.95216435 2 6 C3.32 6 4.64 6 6 6 C5.58259614 10.86971174 3.45534852 12.72184884 0 16 C0 16.66 0 17.32 0 18 C2.56430654 16.90101148 4.06386605 15.93214232 6 13.875 C8 12 8 12 12 12 C11.58259614 16.86971174 9.45534852 18.72184884 6 22 C6 22.66 6 23.32 6 24 C8.56430654 22.90101148 10.06386605 21.93214232 12 19.875 C14 18 14 18 18 18 C17.48927592 22.20569379 16.35530748 24.14209603 13.359375 27.1015625 C12.61816406 27.83890625 11.87695312 28.57625 11.11328125 29.3359375 C10.33339844 30.09132813 9.55351563 30.84671875 8.75 31.625 C7.98558594 32.388125 7.22117188 33.15125 6.43359375 33.9375 C-0.50773379 40.77093126 -6.33163533 44.30292514 -16.23828125 45.25 C-20.77846232 44.94826419 -22.24411717 43.91799823 -25.4375 40.75 C-29 36.52486188 -29 36.52486188 -29 34 C-28.34 34 -27.68 34 -27 34 C-26.67 32.35 -26.34 30.7 -26 29 C-24.35 28.67 -22.7 28.34 -21 28 C-20.67 26.35 -20.34 24.7 -20 23 C-18.35 22.67 -16.7 22.34 -15 22 C-14.938125 21.236875 -14.87625 20.47375 -14.8125 19.6875 C-14.544375 18.800625 -14.27625 17.91375 -14 17 C-13.154375 16.5875 -12.30875 16.175 -11.4375 15.75 C-10.633125 15.1725 -9.82875 14.595 -9 14 C-8.79619179 11.93287767 -8.79619179 11.93287767 -9 9.625 C-9.22645533 5.7689689 -9.18821627 5.25618325 -6.75 1.9375 C-4 0 -4 0 0 0 Z " fill="#F9D0BA" transform="translate(58,32)"/>
<path d="M0 0 C1.9375 0.3125 1.9375 0.3125 4 1 C5.34873892 5.04621677 4.17019544 6.28863444 2.3125 10.0625 C-0.4232722 15.66302621 -2.66239492 21.15598731 -5 27 C2.26 26.67 9.52 26.34 17 26 C17.66 23.03 18.32 20.06 19 17 C19.62831398 14.84262505 20.29026544 12.69447608 21 10.5625 C21.33 9.55316406 21.66 8.54382813 22 7.50390625 C23 5 23 5 25 3 C27.0625 3.1875 27.0625 3.1875 29 4 C30.20293686 7.60881057 29.7153058 8.39233233 28.33984375 11.83984375 C27.96093994 12.81123291 27.58203613 13.78262207 27.19165039 14.78344727 C26.77778076 15.82428467 26.36391113 16.86512207 25.9375 17.9375 C21.72329749 28.82179337 18.16596258 39.77184605 15 51 C14.61374285 52.35299645 14.22706164 53.70587195 13.83984375 55.05859375 C13.56269531 56.02925781 13.28554687 56.99992187 13 58 C11.35 57.34 9.7 56.68 8 56 C9.43219889 47.82139056 11.65783316 39.96336724 14 32 C3.605 32.495 3.605 32.495 -7 33 C-7.49371094 34.85367188 -7.98742187 36.70734375 -8.49609375 38.6171875 C-9.14311613 41.03648857 -9.7902577 43.45575776 -10.4375 45.875 C-10.76298828 47.09832031 -11.08847656 48.32164063 -11.42382812 49.58203125 C-11.73642578 50.74863281 -12.04902344 51.91523437 -12.37109375 53.1171875 C-12.65911865 54.19597168 -12.94714355 55.27475586 -13.24389648 56.38623047 C-14 59 -14 59 -15 61 C-16.32 60.67 -17.64 60.34 -19 60 C-20.06942777 56.74207298 -19.908572 54.71407068 -18.99609375 51.4296875 C-18.7532666 50.5423291 -18.51043945 49.6549707 -18.26025391 48.74072266 C-17.98874512 47.79503418 -17.71723633 46.8493457 -17.4375 45.875 C-17.16083496 44.89450684 -16.88416992 43.91401367 -16.59912109 42.90380859 C-15.74970451 39.93060965 -14.87993214 36.96429971 -14 34 C-13.7529834 33.16404297 -13.5059668 32.32808594 -13.25146484 31.46679688 C-9.91421203 20.36255388 -5.48115233 10.21108073 0 0 Z " fill="#353535" transform="translate(135,32)"/>
<path d="M0 0 C1.32 0 2.64 0 4 0 C5.04535837 3.05566292 5.31961075 5.21061654 4.09375 8.23828125 C3.21511299 9.91787089 2.32102978 11.58944396 1.4140625 13.25390625 C-0.86236664 17.67470649 -2.37507992 22.30578645 -4 27 C3.26 26.67 10.52 26.34 18 26 C18.66 22.7 19.32 19.4 20 16 C20.60927518 13.98177598 21.26480478 11.97583715 22 10 C22.33 9.0925 22.66 8.185 23 7.25 C24 5 24 5 26 3 C28.125 3.375 28.125 3.375 30 4 C29.42440699 9.65875209 27.88342986 14.40986209 25.8125 19.6875 C23.17441314 26.61804395 20.80068539 33.57890695 18.6875 40.6875 C18.44555908 41.49985107 18.20361816 42.31220215 17.9543457 43.14916992 C16.5111284 48.07198057 15.21333452 53.01564459 14 58 C12.68 57.67 11.36 57.34 10 57 C9.01049621 53.22696625 9.04242756 50.84538221 10.21484375 47.13671875 C10.46097412 46.33709717 10.70710449 45.53747559 10.96069336 44.71362305 C11.28303955 43.71500244 11.60538574 42.71638184 11.9375 41.6875 C12.948125 38.490625 13.95875 35.29375 15 32 C4.605 32.495 4.605 32.495 -6 33 C-6.94875 36.320625 -7.8975 39.64125 -8.875 43.0625 C-10.58333333 49.04166667 -12.29166667 55.02083333 -14 61 C-15.65 60.34 -17.3 59.68 -19 59 C-17.81703222 51.06454777 -16.24535296 43.39031713 -14 35.6875 C-13.70601318 34.67365234 -13.41202637 33.65980469 -13.10913086 32.61523438 C-9.7011759 21.33828618 -4.97173468 10.66252811 0 0 Z " fill="#343434" transform="translate(321,32)"/>
<path d="M0 0 C1.32 0.66 2.64 1.32 4 2 C3.34665421 8.03323999 1.12731117 13.42810066 -1 19.0625 C-1.73256078 21.01044571 -2.46184502 22.95962745 -3.1875 24.91015625 C-3.51105469 25.76746338 -3.83460938 26.62477051 -4.16796875 27.50805664 C-5.46039303 31.37888253 -6.09911603 35.14060003 -6.31640625 39.20703125 C-6.35830078 39.95791016 -6.40019531 40.70878906 -6.44335938 41.48242188 C-6.48267578 42.25134766 -6.52199219 43.02027344 -6.5625 43.8125 C-6.60568359 44.60076172 -6.64886719 45.38902344 -6.69335938 46.20117188 C-6.79878321 48.13394215 -6.89983094 50.06695026 -7 52 C-8.65 51.67 -10.3 51.34 -12 51 C-12.66 48.36 -13.32 45.72 -14 43 C-15.299375 43.9590625 -15.299375 43.9590625 -16.625 44.9375 C-19.9598812 46.97548296 -22.16047478 47.63433093 -26 48 C-28.125 46.0625 -28.125 46.0625 -30 43 C-30.10519023 36.08374251 -26.40013902 30.98602709 -22 26 C-20 24 -20 24 -16.5625 23.875 C-15.386875 23.91625 -14.21125 23.9575 -13 24 C-12.01 24 -11.02 24 -10 24 C-9.61328125 22.77023438 -9.2265625 21.54046875 -8.828125 20.2734375 C-8.30257153 18.6404678 -7.77650249 17.00766397 -7.25 15.375 C-6.99734375 14.56675781 -6.7446875 13.75851563 -6.484375 12.92578125 C-4.89148823 8.02765444 -3.07875885 4.13624559 0 0 Z " fill="#282828" transform="translate(269,36)"/>
<path d="M0 0 C1.65 0.33 3.3 0.66 5 1 C4.40815969 4.41125479 3.54414339 7.37208104 2.15234375 10.5390625 C1.79462891 11.36664063 1.43691406 12.19421875 1.06835938 13.046875 C0.3109489 14.7736139 -0.44686734 16.50017487 -1.20507812 18.2265625 C-1.56150391 19.0515625 -1.91792969 19.8765625 -2.28515625 20.7265625 C-2.61394775 21.47502441 -2.94273926 22.22348633 -3.28149414 22.99462891 C-4.16864729 25.11566578 -4.16864729 25.11566578 -4 28 C-3.49210937 27.6390625 -2.98421875 27.278125 -2.4609375 26.90625 C0.82060033 24.69397731 3.30970162 23.11947472 7.25 22.4375 C10.76553934 23.15658759 11.97618077 24.04211036 14 27 C14.97682958 31.20036718 13.7916913 33.85122614 11.6875 37.4375 C7.91917205 42.71852968 2.93314785 46.40841435 -3 49 C-6.34375 49.18359375 -6.34375 49.18359375 -9 49 C-9.66 47.68 -10.32 46.36 -11 45 C-10.14728516 44.65388672 -10.14728516 44.65388672 -9.27734375 44.30078125 C-2.31112334 41.35845443 4.83093489 38.32846307 8 31 C7.67 30.34 7.34 29.68 7 29 C0.63960859 31.74154802 -2.77048598 34.60674396 -7 40 C-8.31590635 41.35053546 -9.64078414 42.69306167 -11 44 C-13.93857302 41.5596114 -13.93857302 41.5596114 -14.20605469 39.12280273 C-13.35739541 32.77171086 -11.50867792 27.04550529 -9.25 21.0625 C-8.74726563 19.67514648 -8.74726563 19.67514648 -8.234375 18.25976562 C-5.89788822 11.94505609 -3.12911271 5.95971389 0 0 Z " fill="#303030" transform="translate(398,36)"/>
<path d="M0 0 C4.47865742 2.48814301 4.47865742 2.48814301 6 5 C6.09499646 7.91466423 5.75912239 10.51267237 5.234375 13.37890625 C4.96943643 16.3418026 5.34671902 17.56387405 7 20 C9.0335948 21.26804566 9.0335948 21.26804566 11 22 C10.67 23.32 10.34 24.64 10 26 C6.05783322 25.7312159 4.43510186 25.44655191 1.625 22.5625 C0 20 0 20 0 18 C-1.15628906 18.84884766 -1.15628906 18.84884766 -2.3359375 19.71484375 C-3.33882812 20.44832031 -4.34171875 21.18179688 -5.375 21.9375 C-6.37273437 22.66839844 -7.37046875 23.39929688 -8.3984375 24.15234375 C-12.23024711 26.87373406 -14.28585789 27.29463388 -19 27 C-21 25 -21 25 -21.2890625 22.21484375 C-20.58926751 14.43198868 -14.76807529 6.17918802 -9 1 C-5.5363459 -1.02490547 -3.85713688 -1.37754889 0 0 Z " fill="#232323" transform="translate(184,57)"/>
<path d="M0 0 C1.32 0 2.64 0 4 0 C5.9060579 3.81211579 5.41795202 8.64936226 5.60546875 12.87890625 C5.7104186 17.07362988 5.7104186 17.07362988 7 21 C7.31453125 20.29875 7.6290625 19.5975 7.953125 18.875 C8.84132214 16.90598465 9.73619009 14.93996865 10.63671875 12.9765625 C11.46624509 11.16539038 12.28446682 9.34890987 13.08203125 7.5234375 C15.52051409 2.18014841 15.52051409 2.18014841 18.05859375 1.2265625 C19.01958984 1.11441406 19.01958984 1.11441406 20 1 C20.495 1.495 20.495 1.495 21 2 C20.7800149 9.13951632 17.4527643 15.0555227 14.375 21.375 C13.86582031 22.46039063 13.35664063 23.54578125 12.83203125 24.6640625 C9.13670249 32.33256429 5.0237614 39.39979243 -1.375 45.125 C-5.23708469 46.41236156 -9.14537214 46.38584852 -13 45 C-14.26953125 42.94140625 -14.26953125 42.94140625 -15 41 C-12.42050715 40.20630989 -10.85077803 40.01946374 -8.125 40.375 C-4.55112875 39.94613545 -4.10542895 39.4694804 -1.8125 36.875 C0.58846241 33.78084634 2.42180413 30.59477948 4 27 C3.54625 26.505 3.0925 26.01 2.625 25.5 C-2.46707762 17.66603444 -0.84959704 8.81743959 0 0 Z " fill="#323232" transform="translate(277,56)"/>
<path d="M0 0 C1.32 1.32 2.64 2.64 4 4 C3.34 5.32 2.68 6.64 2 8 C2.9075 7.7525 3.815 7.505 4.75 7.25 C8 7 8 7 10.125 8.8125 C10.74375 9.534375 11.3625 10.25625 12 11 C14.13309192 12.23512079 14.13309192 12.23512079 16 13 C15.54262451 13.40774658 15.08524902 13.81549316 14.61401367 14.2355957 C12.8336977 16.18179802 12.10026208 17.77100087 11.17578125 20.23046875 C10.86962891 21.03291016 10.56347656 21.83535156 10.24804688 22.66210938 C9.93931641 23.49548828 9.63058594 24.32886719 9.3125 25.1875 C8.99216797 26.03248047 8.67183594 26.87746094 8.34179688 27.74804688 C7.55393312 29.82941828 6.77365745 31.91331539 6 34 C3.66666667 32 1.33333333 30 -1 28 C-1.60263672 27.50113281 -2.20527344 27.00226563 -2.82617188 26.48828125 C-4.5 25 -4.5 25 -7 22 C-6.875 18.625 -6.875 18.625 -6 16 C-7.65 16.66 -9.3 17.32 -11 18 C-12.5 16.625 -12.5 16.625 -14 15 C-14 14.34 -14 13.68 -14 13 C-12.4609375 11.484375 -12.4609375 11.484375 -10.375 9.75 C-6.72639996 6.65323448 -3.34103014 3.42455589 0 0 Z " fill="#FABE9E" transform="translate(75,72)"/>
<path d="M0 0 C3.68069887 1.53643852 5.98775204 3.78150945 8.75 6.625 C9.54921875 7.44226563 10.3484375 8.25953125 11.171875 9.1015625 C11.77515625 9.72804688 12.3784375 10.35453125 13 11 C11.54254576 14.36335594 9.68882146 16.54534005 7.0859375 19.109375 C6.32539063 19.86347656 5.56484375 20.61757812 4.78125 21.39453125 C3.9871875 22.17183594 3.193125 22.94914062 2.375 23.75 C1.17230469 24.93916016 1.17230469 24.93916016 -0.0546875 26.15234375 C-2.03202846 28.10614493 -4.01388909 30.05512103 -6 32 C-8.56679483 29.43320517 -9.33348554 26.94989318 -10.625 23.5625 C-11.29402344 21.83193359 -11.29402344 21.83193359 -11.9765625 20.06640625 C-13 17 -13 17 -13 14 C-13.99 13.67 -14.98 13.34 -16 13 C-15.29488281 12.78601563 -14.58976563 12.57203125 -13.86328125 12.3515625 C-10.27570498 10.65810904 -7.88012544 8.2078289 -5.1875 5.375 C-4.68541016 4.859375 -4.18332031 4.34375 -3.66601562 3.8125 C-2.43703773 2.54840846 -1.21753999 1.27511194 0 0 Z " fill="#F9D0BB" transform="translate(16,74)"/>
<path d="M0 0 C1.9375 0.3125 1.9375 0.3125 4 1 C5.35123963 5.05371889 4.1614461 6.33757046 2.3125 10.125 C1.75820312 11.27871094 1.20390625 12.43242188 0.6328125 13.62109375 C0.09398437 14.73613281 -0.44484375 15.85117187 -1 17 C-1.77921546 18.72540565 -2.55145293 20.4540039 -3.3125 22.1875 C-4.17504747 24.1491586 -5.04159876 26.08319752 -6 28 C-4.88625 27.95875 -3.7725 27.9175 -2.625 27.875 C1 28 1 28 3 30 C-0.00617269 33.00617269 -2.82381598 32.59585316 -7 33 C-7.31022095 34.16571533 -7.31022095 34.16571533 -7.62670898 35.35498047 C-8.5614044 38.86225373 -9.49940926 42.36863343 -10.4375 45.875 C-10.76298828 47.09832031 -11.08847656 48.32164063 -11.42382812 49.58203125 C-11.73642578 50.74863281 -12.04902344 51.91523437 -12.37109375 53.1171875 C-12.65911865 54.19597168 -12.94714355 55.27475586 -13.24389648 56.38623047 C-14 59 -14 59 -15 61 C-16.32 60.67 -17.64 60.34 -19 60 C-20.06942777 56.74207298 -19.908572 54.71407068 -18.99609375 51.4296875 C-18.7532666 50.5423291 -18.51043945 49.6549707 -18.26025391 48.74072266 C-17.98874512 47.79503418 -17.71723633 46.8493457 -17.4375 45.875 C-17.16083496 44.89450684 -16.88416992 43.91401367 -16.59912109 42.90380859 C-15.74970451 39.93060965 -14.87993214 36.96429971 -14 34 C-13.7529834 33.16404297 -13.5059668 32.32808594 -13.25146484 31.46679688 C-9.91421203 20.36255388 -5.48115233 10.21108073 0 0 Z " fill="#2C2C2C" transform="translate(135,32)"/>
<path d="M0 0 C1.32 0.66 2.64 1.32 4 2 C3.27595226 6.04704581 2.16553713 9.89070402 0.9375 13.8125 C0.57527344 14.97394531 0.21304687 16.13539062 -0.16015625 17.33203125 C-0.43730469 18.21246094 -0.71445312 19.09289062 -1 20 C1.72820927 19.43730684 2.87992793 19.10881532 5 17.1875 C7.51953119 13.17199716 8.63081462 9.10148221 9.875 4.546875 C11 2 11 2 13 1.015625 C13.66 1.01046875 14.32 1.0053125 15 1 C15.66 1.66 16.32 2.32 17 3 C16.828125 4.98828125 16.828125 4.98828125 16.25 7.3125 C16.05148437 8.11945313 15.85296875 8.92640625 15.6484375 9.7578125 C15 12 15 12 13.875 14.6875 C12.77169011 17.60339041 12.72518057 19.90828143 13 23 C13.66 23.66 14.32 24.32 15 25 C14.625 27.625 14.625 27.625 14 30 C12.25 29.875 12.25 29.875 10 29 C7.75 25.9375 7.75 25.9375 6 23 C5.278125 23.66 4.55625 24.32 3.8125 25 C1 27 1 27 -1.625 27.4375 C-4.47657031 26.91221073 -5.21308243 26.23744352 -7 24 C-8.79689301 16.08395781 -5.02259638 8.61177926 -1.25 1.875 C-0.8375 1.25625 -0.425 0.6375 0 0 Z " fill="#2F2F2F" transform="translate(359,57)"/>
<path d="M0 0 C2.125 0.375 2.125 0.375 4 1 C3.42440699 6.65875209 1.88342986 11.40986209 -0.1875 16.6875 C-2.82558686 23.61804395 -5.19931461 30.57890695 -7.3125 37.6875 C-7.55444092 38.49985107 -7.79638184 39.31220215 -8.0456543 40.14916992 C-9.4888716 45.07198057 -10.78666548 50.01564459 -12 55 C-13.32 54.67 -14.64 54.34 -16 54 C-17.01275945 50.16233287 -16.92380513 47.70571912 -15.78515625 43.91796875 C-15.51123047 42.98662109 -15.23730469 42.05527344 -14.95507812 41.09570312 C-14.66052734 40.13599609 -14.36597656 39.17628906 -14.0625 38.1875 C-13.77181641 37.20845703 -13.48113281 36.22941406 -13.18164062 35.22070312 C-12.46453862 32.81077016 -11.73360838 30.40495965 -11 28 C-14.96 28 -18.92 28 -23 28 C-23.33 27.01 -23.66 26.02 -24 25 C-18.72 24.34 -13.44 23.68 -8 23 C-7.7525 21.576875 -7.505 20.15375 -7.25 18.6875 C-4.39572193 4.39572193 -4.39572193 4.39572193 0 0 Z " fill="#2B2B2B" transform="translate(347,35)"/>
<path d="M0 0 C1.32 0 2.64 0 4 0 C4.86516528 4.49885947 5.30903272 7.01647791 3 11 C3.66386719 10.55527344 4.32773438 10.11054687 5.01171875 9.65234375 C5.89472656 9.08644531 6.77773437 8.52054688 7.6875 7.9375 C8.55761719 7.36902344 9.42773438 6.80054687 10.32421875 6.21484375 C13 5 13 5 15.70703125 5.12890625 C18 6 18 6 20 9 C20.4140625 11.77734375 20.4140625 11.77734375 20.625 14.9375 C20.69976562 15.97777344 20.77453125 17.01804687 20.8515625 18.08984375 C20.96892515 20.39076934 21 22.69608321 21 25 C18.5625 24.625 18.5625 24.625 16 24 C14.67770811 21.35541621 14.90322806 19.32238699 14.9375 16.375 C14.94652344 15.37210938 14.95554688 14.36921875 14.96484375 13.3359375 C14.97644531 12.56507812 14.98804688 11.79421875 15 11 C7.54920676 15.31027481 7.54920676 15.31027481 1.0625 20.875 C-1.01716888 23.01768914 -2.02018588 23.89724779 -5 24 C-7 22 -7 22 -7.2734375 19.22265625 C-6.97946654 15.75799845 -6.15350577 13.54310566 -4.625 10.4375 C-2.95437106 6.99365964 -1.38187844 3.57092888 0 0 Z " fill="#2D2D2D" transform="translate(209,58)"/>
<path d="M0 0 C0.46606926 3.0201288 0.49769835 5.18179433 -1.11914062 7.83984375 C-2.73845054 9.83955638 -4.43612677 11.67481657 -6.25 13.5 C-6.87664551 14.13566895 -7.50329102 14.77133789 -8.14892578 15.42626953 C-11.36910859 18.41916442 -13.15584216 19.89196245 -17.6015625 20.4609375 C-20.60548271 19.92324295 -23.20640273 19.21772189 -26 18 C-26 17.34 -26 16.68 -26 16 C-25.39414062 15.88785156 -24.78828125 15.77570313 -24.1640625 15.66015625 C-15.23145183 13.55755712 -10.00395957 8.22800785 -3.8359375 1.71484375 C-2 0 -2 0 0 0 Z " fill="#EDB394" transform="translate(73,63)"/>
<path d="M0 0 C1.32 1.32 2.64 2.64 4 4 C3.24163557 5.65161581 2.46787924 7.29617138 1.6875 8.9375 C1.25824219 9.85402344 0.82898438 10.77054688 0.38671875 11.71484375 C-1 14 -1 14 -4 15 C-4.33 16.65 -4.66 18.3 -5 20 C-5.66 19.67 -6.32 19.34 -7 19 C-6.67 18.01 -6.34 17.02 -6 16 C-7.65 16.66 -9.3 17.32 -11 18 C-12.5 16.625 -12.5 16.625 -14 15 C-14 14.34 -14 13.68 -14 13 C-12.4609375 11.484375 -12.4609375 11.484375 -10.375 9.75 C-6.72639996 6.65323448 -3.34103014 3.42455589 0 0 Z " fill="#E27B82" transform="translate(75,72)"/>
<path d="M0 0 C1.299375 0.2475 1.299375 0.2475 2.625 0.5 C3.5 2.5625 3.5 2.5625 3.625 5.5 C1.11893548 9.54092065 -1.89596512 12.76148359 -6.375 14.5 C-7.695 14.5 -9.015 14.5 -10.375 14.5 C-10.05142908 8.02858169 -6.81263155 1.00927875 0 0 Z " fill="#F1F1F1" transform="translate(254.375,64.5)"/>
<path d="M0 0 C1.32 0.66 2.64 1.32 4 2 C1.55678499 9.55175547 -3.54280302 13.85764722 -10 18 C-10.66 18 -11.32 18 -12 18 C-10.35591849 11.05832253 -5.95246782 3.96831188 0 0 Z " fill="#EEEEEE" transform="translate(180,61)"/>
<path d="M0 0 C3.58402695 1.53248049 6.02850134 3.6674601 8.8125 6.375 C9.62332031 7.14585938 10.43414062 7.91671875 11.26953125 8.7109375 C13 11 13 11 12.76171875 13.2890625 C12.51035156 13.85367188 12.25898437 14.41828125 12 15 C8 15 8 15 5.421875 12.8125 C4.54015625 11.884375 3.6584375 10.95625 2.75 10 C1.85796875 9.071875 0.9659375 8.14375 0.046875 7.1875 C-0.62859375 6.465625 -1.3040625 5.74375 -2 5 C-1.34 3.35 -0.68 1.7 0 0 Z " fill="#88D0E5" transform="translate(22,67)"/>
<path d="M0 0 C0.99 0.33 1.98 0.66 3 1 C2.43573848 4.79594117 0.81748138 6.58710633 -1.875 9.25 C-2.57367188 9.95640625 -3.27234375 10.6628125 -3.9921875 11.390625 C-6 13 -6 13 -9 13 C-9.33 12.01 -9.66 11.02 -10 10 C-6.7 6.7 -3.4 3.4 0 0 Z " fill="#363636" transform="translate(85,21)"/>
<path d="M0 0 C3.45201639 1.47721422 5.64961936 3.43794001 8.25 6.125 C8.95640625 6.84945313 9.6628125 7.57390625 10.390625 8.3203125 C11.18726563 9.15175781 11.18726563 9.15175781 12 10 C11.67 10.99 11.34 11.98 11 13 C7.22764571 12.42946335 5.37283949 10.83356579 2.6875 8.1875 C1.96949219 7.50042969 1.25148438 6.81335938 0.51171875 6.10546875 C-1 4 -1 4 -0.73046875 1.73828125 C-0.48941406 1.16464844 -0.24835937 0.59101563 0 0 Z " fill="#363636" transform="translate(4,21)"/>
<path d="M0 0 C3.51865145 0.3015987 5.00757452 1.00605962 7.8125 3.25 C10 6 10 6 10.3125 8.8125 C10.1578125 9.8953125 10.1578125 9.8953125 10 11 C6.37386801 10.43040847 4.74482259 9.07625466 2.25 6.4375 C1.63640625 5.79683594 1.0228125 5.15617187 0.390625 4.49609375 C-0.29773438 3.75552734 -0.29773438 3.75552734 -1 3 C-0.67 2.01 -0.34 1.02 0 0 Z " fill="#ECB394" transform="translate(24,47)"/>
<path d="M0 0 C3.51865145 0.3015987 5.00757452 1.00605962 7.8125 3.25 C10 6 10 6 10.3125 8.8125 C10.1578125 9.8953125 10.1578125 9.8953125 10 11 C6.37386801 10.43040847 4.74482259 9.07625466 2.25 6.4375 C1.63640625 5.79683594 1.0228125 5.15617187 0.390625 4.49609375 C-0.29773438 3.75552734 -0.29773438 3.75552734 -1 3 C-0.67 2.01 -0.34 1.02 0 0 Z " fill="#ECB495" transform="translate(30,41)"/>
<path d="M0 0 C3.51865145 0.3015987 5.00757452 1.00605962 7.8125 3.25 C10 6 10 6 10.3125 8.8125 C10.1578125 9.8953125 10.1578125 9.8953125 10 11 C6.37386801 10.43040847 4.74482259 9.07625466 2.25 6.4375 C1.63640625 5.79683594 1.0228125 5.15617187 0.390625 4.49609375 C-0.29773437 3.75552734 -0.29773437 3.75552734 -1 3 C-0.67 2.01 -0.34 1.02 0 0 Z " fill="#EDB495" transform="translate(36,35)"/>
<path d="M0 0 C-0.37596209 2.78211944 -0.67318459 4.5879284 -2.4375 6.8125 C-4 8 -4 8 -6 8 C-6.33 9.65 -6.66 11.3 -7 13 C-7.33 13 -7.66 13 -8 13 C-9.12782578 7.88140608 -9.12782578 7.88140608 -9 5 C-6.04933238 0.95337012 -5.08749523 0 0 0 Z " fill="#F0CAB5" transform="translate(58,32)"/>
<path d="M0 0 C0.99 0.33 1.98 0.66 3 1 C3.12375 2.2375 3.2475 3.475 3.375 4.75 C3.75746305 7.8762197 4.30549523 10.28879237 6 13 C2.25 14.125 2.25 14.125 0 13 C0 8.71 0 4.42 0 0 Z " fill="#1F1F1F" transform="translate(225,69)"/>
<path d="M0 0 C1.23556641 0.01740234 1.23556641 0.01740234 2.49609375 0.03515625 C3.32238281 0.04417969 4.14867188 0.05320313 5 0.0625 C5.63808594 0.07410156 6.27617188 0.08570313 6.93359375 0.09765625 C6.60359375 1.74765625 6.27359375 3.39765625 5.93359375 5.09765625 C3.29359375 5.09765625 0.65359375 5.09765625 -2.06640625 5.09765625 C-2.62890625 3.16015625 -2.62890625 3.16015625 -3.06640625 1.09765625 C-2.06640625 0.09765625 -2.06640625 0.09765625 0 0 Z " fill="#545454" transform="translate(84.06640625,37.90234375)"/>
<path d="M0 0 C2.97 0 5.94 0 9 0 C9.33 1.32 9.66 2.64 10 4 C9 5 9 5 7.15234375 5.09765625 C5.1015625 5.06510417 3.05078125 5.03255208 1 5 C0.67 3.35 0.34 1.7 0 0 Z " fill="#545454" transform="translate(0,38)"/>
<path d="M0 0 C1.32 0.66 2.64 1.32 4 2 C4 4.31 4 6.62 4 9 C2.02 9.99 2.02 9.99 0 11 C-1 10 -1 10 -1.1328125 7.96875 C-1.13023438 7.1540625 -1.12765625 6.339375 -1.125 5.5 C-1.12757812 4.6853125 -1.13015625 3.870625 -1.1328125 3.03125 C-1 1 -1 1 0 0 Z " fill="#575757" transform="translate(68,18)"/>
<path d="M0 0 C0.99 0.33 1.98 0.66 3 1 C3 3.97 3 6.94 3 10 C1.68 10 0.36 10 -1 10 C-2 9 -2 9 -2.1875 5.5625 C-2 2 -2 2 0 0 Z " fill="#575757" transform="translate(21,18)"/>
<path d="M0 0 C3.23060419 0.55700072 5.0658223 1.29215122 7 4 C7.1875 6.6875 7.1875 6.6875 7 9 C3.2273236 8.46104623 1.31787009 7.00464642 -1 4 C-0.75 1.75 -0.75 1.75 0 0 Z " fill="#E7B091" transform="translate(21,55)"/>
<path d="M0 0 C0.99 0.33 1.98 0.66 3 1 C0.36 3.64 -2.28 6.28 -5 9 C-5 4.61031544 -2.87194899 3.23094261 0 0 Z " fill="#545454" transform="translate(175,58)"/>
</svg>
