<svg width="18" height="18" viewBox="0 0 18 18" fill="none" xmlns="http://www.w3.org/2000/svg">
<path d="M9 1.6875C7.55373 1.6875 6.13993 2.11637 4.9374 2.91988C3.73486 3.72339 2.7976 4.86544 2.24413 6.20163C1.69067 7.53781 1.54586 9.00811 1.82801 10.4266C2.11017 11.8451 2.80661 13.148 3.82928 14.1707C4.85196 15.1934 6.15492 15.8898 7.57341 16.172C8.99189 16.4541 10.4622 16.3093 11.7984 15.7559C13.1346 15.2024 14.2766 14.2651 15.0801 13.0626C15.8836 11.8601 16.3125 10.4463 16.3125 9C16.3103 7.06129 15.5391 5.20263 14.1682 3.83176C12.7974 2.46088 10.9387 1.68974 9 1.6875ZM11.5313 6.75C11.6981 6.75 11.8613 6.79948 12 6.8922C12.1388 6.98491 12.2469 7.11669 12.3108 7.27086C12.3746 7.42504 12.3913 7.59469 12.3588 7.75836C12.3262 7.92203 12.2459 8.07237 12.1279 8.19037C12.0099 8.30837 11.8595 8.38873 11.6959 8.42129C11.5322 8.45384 11.3625 8.43713 11.2084 8.37327C11.0542 8.30941 10.9224 8.20127 10.8297 8.06251C10.737 7.92376 10.6875 7.76063 10.6875 7.59375C10.6875 7.36998 10.7764 7.15537 10.9346 6.99714C11.0929 6.83891 11.3075 6.75001 11.5313 6.75ZM6.46875 6.75C6.63563 6.75 6.79876 6.79948 6.93752 6.8922C7.07627 6.98491 7.18442 7.11669 7.24828 7.27086C7.31214 7.42504 7.32885 7.59469 7.29629 7.75836C7.26373 7.92203 7.18338 8.07237 7.06537 8.19037C6.94737 8.30837 6.79703 8.38873 6.63336 8.42129C6.46969 8.45384 6.30004 8.43713 6.14586 8.37327C5.99169 8.30941 5.85991 8.20127 5.7672 8.06251C5.67449 7.92376 5.625 7.76063 5.625 7.59375C5.62501 7.36998 5.71391 7.15537 5.87214 6.99714C6.03038 6.83891 6.24498 6.75001 6.46875 6.75ZM12.4105 10.969C12.0648 11.5675 11.5676 12.0645 10.9689 12.41C10.3703 12.7556 9.69123 12.9375 9.00001 12.9375C8.30879 12.9375 7.62974 12.7556 7.03109 12.4101C6.43243 12.0645 5.93526 11.5675 5.5895 10.969C5.55252 10.905 5.52849 10.8344 5.5188 10.7612C5.5091 10.688 5.51392 10.6136 5.53298 10.5422C5.55205 10.4708 5.58498 10.4039 5.62991 10.3453C5.67483 10.2866 5.73087 10.2374 5.79481 10.2004C5.85876 10.1634 5.92936 10.1394 6.00259 10.1297C6.07582 10.12 6.15024 10.1248 6.22161 10.1439C6.29298 10.163 6.35989 10.1959 6.41853 10.2408C6.47717 10.2858 6.52639 10.3418 6.56337 10.4057C6.81033 10.8335 7.16552 11.1886 7.59324 11.4356C8.02097 11.6825 8.50616 11.8125 9.00005 11.8125C9.49394 11.8125 9.97913 11.6825 10.4068 11.4355C10.8346 11.1886 11.1898 10.8334 11.4367 10.4057C11.4737 10.3418 11.5229 10.2857 11.5815 10.2408C11.6402 10.1959 11.7071 10.163 11.7785 10.1439C11.8498 10.1248 11.9242 10.12 11.9975 10.1297C12.0707 10.1394 12.1413 10.1634 12.2052 10.2004C12.2692 10.2374 12.3252 10.2866 12.3701 10.3453C12.415 10.4039 12.448 10.4708 12.467 10.5422C12.4861 10.6135 12.4909 10.688 12.4812 10.7612C12.4715 10.8344 12.4475 10.905 12.4105 10.969Z" fill="#4163BB"/>
</svg>
