<svg width="18" height="18" viewBox="0 0 18 18" fill="none" xmlns="http://www.w3.org/2000/svg">
<path d="M15.1726 8.3084C15.1515 8.21837 15.1085 8.13494 15.0474 8.0655C14.9863 7.99605 14.9091 7.94273 14.8225 7.91025L10.7704 6.39071L11.8016 1.23475C11.8256 1.11474 11.8098 0.990185 11.7566 0.879966C11.7034 0.769748 11.6157 0.679884 11.5068 0.624006C11.3979 0.568128 11.2738 0.549285 11.1532 0.570334C11.0327 0.591382 10.9223 0.651175 10.8388 0.740643L2.96375 9.17814C2.90065 9.24575 2.85519 9.32787 2.8314 9.41724C2.80761 9.5066 2.80622 9.60046 2.82735 9.69049C2.84849 9.78052 2.89149 9.86395 2.95256 9.9334C3.01363 10.0028 3.09088 10.0562 3.17747 10.0886L7.22961 11.6082L6.1984 16.7641C6.17439 16.8841 6.19018 17.0087 6.24337 17.1189C6.29656 17.2292 6.38426 17.319 6.49314 17.3749C6.60203 17.4308 6.72618 17.4496 6.84674 17.4286C6.96731 17.4075 7.07772 17.3477 7.16122 17.2582L15.0362 8.82074C15.0993 8.75314 15.1448 8.67101 15.1686 8.58165C15.1924 8.49229 15.1937 8.39843 15.1726 8.3084Z" fill="#4163BB"/>
</svg>
