<svg width="18" height="18" viewBox="0 0 18 18" fill="none" xmlns="http://www.w3.org/2000/svg">
<path d="M14.8297 10.3298C14.1072 11.0475 13.1859 11.532 12.185 11.7204C11.1842 11.9089 10.1498 11.7928 9.21568 11.387L5.55645 15.6234C5.54748 15.6338 5.53817 15.6438 5.5285 15.6535C5.10647 16.0751 4.53428 16.3119 3.93774 16.3117C3.3412 16.3116 2.76914 16.0745 2.34732 15.6527C1.9255 15.2309 1.68845 14.6588 1.68829 14.0623C1.68814 13.4658 1.92488 12.8936 2.34648 12.4715C2.35616 12.4619 2.36622 12.4525 2.37656 12.4435L6.61309 8.78425C6.20605 7.85566 6.08711 6.82627 6.27166 5.82933C6.45621 4.83238 6.93576 3.91378 7.64823 3.19243C8.36069 2.47108 9.27328 1.98019 10.2679 1.7833C11.2624 1.58641 12.2932 1.69259 13.2268 2.08808C13.3116 2.12407 13.3863 2.18034 13.4443 2.25193C13.5023 2.32353 13.5418 2.40827 13.5594 2.49871C13.577 2.58916 13.5721 2.68253 13.5452 2.77065C13.5182 2.85876 13.4701 2.93892 13.4049 3.00407L10.6674 5.74159L10.9326 7.06743L12.2584 7.33262L14.996 4.59503C15.0611 4.5299 15.1413 4.48176 15.2294 4.45484C15.3175 4.42792 15.4109 4.42304 15.5013 4.44063C15.5917 4.45823 15.6765 4.49775 15.7481 4.55574C15.8197 4.61373 15.8759 4.6884 15.9119 4.77321C16.3082 5.70136 16.4169 6.72705 16.224 7.71764C16.031 8.70823 15.5454 9.61816 14.8297 10.3298Z" fill="#4163BB"/>
</svg>
