<svg width="18" height="18" viewBox="0 0 18 18" fill="none" xmlns="http://www.w3.org/2000/svg">
<path d="M15.75 5.39201L12.608 2.24999C12.5036 2.14552 12.3795 2.06265 12.243 2.00611C12.1066 1.94957 11.9603 1.92047 11.8125 1.92047C11.6648 1.92047 11.5185 1.94957 11.382 2.00611C11.2455 2.06265 11.1215 2.14552 11.017 2.24999L9.16487 4.10215L2.57956 10.6875C2.47475 10.7917 2.39166 10.9157 2.33509 11.0522C2.27852 11.1888 2.2496 11.3352 2.25 11.483V14.625C2.25035 14.9233 2.36898 15.2092 2.57989 15.4201C2.79079 15.631 3.07674 15.7497 3.375 15.75H6.51703C6.66482 15.7504 6.81123 15.7215 6.94777 15.6649C7.08432 15.6084 7.20829 15.5253 7.3125 15.4205L15.75 6.98297C15.9607 6.77182 16.079 6.48574 16.079 6.18748C16.079 5.88923 15.9607 5.60315 15.75 5.39201ZM13.5 7.64201L10.358 4.49999L11.8125 3.04547L14.9545 6.18749L13.5 7.64201Z" fill="#4163BB"/>
</svg>
