<svg width="18" height="18" viewBox="0 0 18 18" fill="none" xmlns="http://www.w3.org/2000/svg">
<path d="M11.0905 7.95453C11.0063 7.8314 10.9744 7.67985 11.0019 7.53322C11.0294 7.38659 11.114 7.25689 11.2371 7.17264L15.9949 3.91733C16.118 3.83308 16.2695 3.8012 16.4162 3.82869C16.5628 3.85619 16.6925 3.9408 16.7767 4.06393C16.861 4.18705 16.8929 4.3386 16.8654 4.48523C16.8379 4.63186 16.7533 4.76157 16.6301 4.84581L11.8724 8.10113C11.8115 8.14286 11.7429 8.17217 11.6706 8.18739C11.5983 8.20261 11.5237 8.20344 11.4511 8.18982C11.3785 8.17621 11.3093 8.14842 11.2474 8.10805C11.1855 8.06768 11.1322 8.01551 11.0905 7.95453ZM16.7767 13.9361C16.735 13.9971 16.6817 14.0493 16.6199 14.0896C16.558 14.13 16.4888 14.1578 16.4162 14.1714C16.3436 14.185 16.269 14.1842 16.1967 14.169C16.1244 14.1538 16.0558 14.1244 15.9949 14.0827L9.56249 9.6816L6.5738 11.7265C6.80333 12.3056 6.81144 12.949 6.5966 13.5338C6.38177 14.1185 5.95903 14.6036 5.40916 14.8964C4.85929 15.1892 4.22084 15.2691 3.61576 15.1209C3.01068 14.9728 2.4814 14.6069 2.12903 14.0931C1.77666 13.5794 1.6259 12.9539 1.70556 12.336C1.78521 11.7182 2.0897 11.1513 2.56084 10.7438C3.03199 10.3362 3.63677 10.1166 4.25964 10.1267C4.88252 10.1368 5.47982 10.3761 5.93745 10.7988L8.56634 9.00003L5.93742 7.2013C5.48186 7.62104 4.88767 7.85832 4.26829 7.86784C3.64891 7.87736 3.04772 7.65846 2.57947 7.25291C2.11122 6.84737 1.80872 6.28359 1.7297 5.6692C1.65068 5.0548 1.80069 4.43283 2.15108 3.922C2.50148 3.41117 3.02772 3.04726 3.62935 2.89975C4.23099 2.75224 4.86587 2.83145 5.41282 3.12226C5.95977 3.41307 6.38047 3.89512 6.59461 4.47638C6.80875 5.05764 6.80134 5.69741 6.57379 6.27355L16.6301 13.1542C16.7533 13.2385 16.8379 13.3682 16.8654 13.5148C16.8929 13.6614 16.861 13.813 16.7767 13.9361ZM5.625 12.6563C5.62501 12.3309 5.51221 12.0156 5.30582 11.7641C5.09943 11.5126 4.81222 11.3405 4.49313 11.277C4.17404 11.2135 3.84281 11.2626 3.55587 11.416C3.26894 11.5694 3.04406 11.8175 2.91956 12.1181C2.79505 12.4186 2.77861 12.7531 2.87305 13.0644C2.96749 13.3758 3.16696 13.6447 3.43747 13.8255C3.70798 14.0062 4.0328 14.0876 4.35658 14.0557C4.68036 14.0238 4.98306 13.8806 5.21312 13.6506C5.34411 13.5203 5.44797 13.3654 5.51867 13.1947C5.58937 13.024 5.62551 12.841 5.625 12.6563ZM5.21312 6.33809C5.40979 6.14143 5.54372 5.89086 5.59798 5.61807C5.65224 5.34529 5.62439 5.06254 5.51796 4.80558C5.41152 4.54862 5.23128 4.32899 5.00002 4.17447C4.76877 4.01995 4.49688 3.93747 4.21875 3.93747C3.94062 3.93747 3.66874 4.01995 3.43748 4.17447C3.20622 4.32899 3.02598 4.54862 2.91955 4.80558C2.81311 5.06254 2.78526 5.34529 2.83952 5.61807C2.89378 5.89086 3.02772 6.14143 3.22439 6.33809C3.35433 6.4698 3.50915 6.57438 3.67985 6.64576C3.85055 6.71714 4.03373 6.75389 4.21875 6.75389C4.40377 6.75389 4.58695 6.71714 4.75765 6.64576C4.92835 6.57438 5.08317 6.4698 5.21312 6.33809Z" fill="#4163BB"/>
</svg>
