<svg width="18" height="18" viewBox="0 0 18 18" fill="none" xmlns="http://www.w3.org/2000/svg">
<path d="M12.9375 6.80658V6.1875C12.9368 5.59097 12.6995 5.01907 12.2777 4.59726C11.8559 4.17545 11.284 3.93818 10.6875 3.9375H9.5625V2.25H11.8125C11.9616 2.25017 12.1046 2.30949 12.2101 2.41494C12.3155 2.52039 12.3748 2.66337 12.375 2.8125C12.375 2.96168 12.4343 3.10476 12.5398 3.21025C12.6452 3.31574 12.7883 3.375 12.9375 3.375C13.0867 3.375 13.2298 3.31574 13.3352 3.21025C13.4407 3.10476 13.5 2.96168 13.5 2.8125C13.4995 2.3651 13.3215 1.93618 13.0052 1.61982C12.6888 1.30347 12.2599 1.12551 11.8125 1.125H7.3125C7.16332 1.125 7.02024 1.18426 6.91475 1.28975C6.80926 1.39524 6.75 1.53832 6.75 1.6875C6.75 1.83668 6.80926 1.97976 6.91475 2.08525C7.02024 2.19074 7.16332 2.25 7.3125 2.25H8.4375V3.9375H7.3125C6.71597 3.93818 6.14407 4.17545 5.72226 4.59726C5.30045 5.01907 5.06318 5.59097 5.0625 6.1875V6.80658C4.4277 6.93708 3.8573 7.28244 3.44745 7.78445C3.03759 8.28646 2.81334 8.91443 2.8125 9.5625V15.1875C2.81284 15.4858 2.93148 15.7717 3.14238 15.9826C3.35329 16.1935 3.63924 16.3122 3.9375 16.3125H14.0625C14.3608 16.3122 14.6467 16.1935 14.8576 15.9826C15.0685 15.7717 15.1872 15.4858 15.1875 15.1875V9.5625C15.1867 8.91443 14.9624 8.28646 14.5526 7.78445C14.1427 7.28244 13.5723 6.93708 12.9375 6.80658ZM7.3125 5.0625H10.6875C10.9858 5.06284 11.2717 5.18148 11.4826 5.39238C11.6935 5.60329 11.8122 5.88924 11.8125 6.1875V6.75H6.1875V6.1875C6.18784 5.88924 6.30648 5.60329 6.51738 5.39238C6.72829 5.18148 7.01424 5.06284 7.3125 5.0625Z" fill="#4163BB"/>
</svg>
