<svg width="18" height="18" viewBox="0 0 18 18" fill="none" xmlns="http://www.w3.org/2000/svg">
<path d="M14.625 3.9375H12.6756L11.7176 2.50049C11.6662 2.42344 11.5967 2.36026 11.515 2.31656C11.4334 2.27286 11.3422 2.25 11.2496 2.25H6.74959C6.65699 2.25 6.56581 2.27286 6.48417 2.31656C6.40253 2.36026 6.33293 2.42344 6.28157 2.50049L5.32356 3.9375H3.375C2.9276 3.93801 2.49868 4.11597 2.18232 4.43232C1.86597 4.74868 1.68801 5.1776 1.6875 5.625V13.5C1.68801 13.9474 1.86597 14.3763 2.18232 14.6927C2.49868 15.009 2.9276 15.187 3.375 15.1875H14.625C15.0724 15.187 15.5013 15.009 15.8177 14.6927C16.134 14.3763 16.312 13.9474 16.3125 13.5V5.625C16.312 5.1776 16.134 4.74868 15.8177 4.43232C15.5013 4.11597 15.0724 3.93801 14.625 3.9375ZM11.5312 9.28125C11.5312 9.78188 11.3828 10.2713 11.1047 10.6875C10.8265 11.1038 10.4312 11.4282 9.96867 11.6198C9.50614 11.8114 8.99719 11.8615 8.50618 11.7639C8.01516 11.6662 7.56414 11.4251 7.21014 11.0711C6.85613 10.7171 6.61506 10.2661 6.51739 9.77507C6.41972 9.28406 6.46985 8.77511 6.66143 8.31258C6.85301 7.85006 7.17745 7.45473 7.59371 7.17659C8.00997 6.89846 8.49937 6.75 9 6.75C9.6711 6.75075 10.3145 7.01768 10.789 7.49222C11.2636 7.96676 11.5305 8.61015 11.5312 9.28125Z" fill="#4163BB"/>
</svg>
