<svg width="18" height="18" viewBox="0 0 18 18" fill="none" xmlns="http://www.w3.org/2000/svg">
<path d="M5.0625 16.0313C5.0625 16.1981 5.01302 16.3613 4.9203 16.5C4.82759 16.6388 4.69581 16.7469 4.54164 16.8108C4.38746 16.8746 4.21781 16.8913 4.05414 16.8588C3.89047 16.8262 3.74013 16.7459 3.62213 16.6279C3.50413 16.5099 3.42377 16.3595 3.39121 16.1959C3.35866 16.0322 3.37537 15.8625 3.43923 15.7084C3.50309 15.5542 3.61123 15.4224 3.74999 15.3297C3.88874 15.237 4.05187 15.1875 4.21875 15.1875C4.44253 15.1875 4.65714 15.2764 4.81537 15.4346C4.97361 15.5929 5.0625 15.8075 5.0625 16.0313ZM6.1875 13.2188C6.02062 13.2188 5.85749 13.2682 5.71874 13.361C5.57998 13.4537 5.47184 13.5854 5.40798 13.7396C5.34412 13.8938 5.32741 14.0634 5.35996 14.2271C5.39252 14.3908 5.47288 14.5411 5.59088 14.6591C5.70888 14.7771 5.85922 14.8575 6.02289 14.89C6.18656 14.9226 6.35621 14.9059 6.51039 14.842C6.66456 14.7782 6.79634 14.67 6.88905 14.5313C6.98177 14.3925 7.03125 14.2294 7.03125 14.0625C7.03125 13.8387 6.94236 13.6241 6.78412 13.4659C6.62589 13.3076 6.41128 13.2188 6.1875 13.2188ZM1.96875 12.9375C1.80187 12.9375 1.63874 12.987 1.49999 13.0797C1.36123 13.1724 1.25309 13.3042 1.18923 13.4584C1.12537 13.6125 1.10866 13.7822 1.14121 13.9459C1.17377 14.1095 1.25413 14.2599 1.37213 14.3779C1.49013 14.4959 1.64047 14.5762 1.80414 14.6088C1.96781 14.6413 2.13746 14.6246 2.29164 14.5608C2.44581 14.4969 2.57759 14.3888 2.6703 14.25C2.76302 14.1113 2.8125 13.9481 2.8125 13.7813C2.8125 13.5575 2.72361 13.3429 2.56537 13.1846C2.40714 13.0264 2.19253 12.9375 1.96875 12.9375ZM4.78125 11.8125C4.78125 11.6456 4.73177 11.4825 4.63905 11.3437C4.54634 11.205 4.41456 11.0968 4.26039 11.033C4.10621 10.9691 3.93656 10.9524 3.77289 10.985C3.60922 11.0175 3.45888 11.0979 3.34088 11.2159C3.22288 11.3339 3.14252 11.4842 3.10996 11.6479C3.07741 11.8116 3.09412 11.9812 3.15798 12.1354C3.22184 12.2896 3.32998 12.4213 3.46874 12.5141C3.60749 12.6068 3.77062 12.6563 3.9375 12.6563C4.16128 12.6563 4.37589 12.5674 4.53412 12.4091C4.69236 12.2509 4.78125 12.0363 4.78125 11.8125ZM17.4375 2.25H15.4205C15.2727 2.2496 15.1263 2.27851 14.9897 2.33508C14.8532 2.39164 14.7292 2.47473 14.625 2.57953L12.6672 4.53729L3.79818 6.01547C3.59429 6.04945 3.40371 6.13896 3.24735 6.27415C3.09099 6.40935 2.9749 6.58501 2.91182 6.78185C2.84874 6.97869 2.84111 7.18911 2.88977 7.39C2.93843 7.5909 3.04149 7.7745 3.18765 7.92067L10.0793 14.8123C10.2255 14.9585 10.4091 15.0616 10.61 15.1102C10.8109 15.1589 11.0213 15.1513 11.2182 15.0882C11.415 15.0251 11.5907 14.909 11.7259 14.7527C11.8611 14.5963 11.9506 14.4057 11.9845 14.2018L13.4627 5.3328V5.33277L15.4205 3.375H17.4375C17.5867 3.375 17.7298 3.31574 17.8352 3.21025C17.9407 3.10476 18 2.96169 18 2.8125C18 2.66332 17.9407 2.52025 17.8352 2.41476C17.7298 2.30927 17.5867 2.25 17.4375 2.25Z" fill="#4163BB"/>
</svg>
